<?xml version="1.0" standalone="no"?>
<!DOCTYPE svg PUBLIC "-//W3C//DTD SVG 20010904//EN"
 "http://www.w3.org/TR/2001/REC-SVG-20010904/DTD/svg10.dtd">
<svg version="1.0" xmlns="http://www.w3.org/2000/svg"
 width="500.000000pt" height="500.000000pt" viewBox="0 0 500.000000 500.000000"
 preserveAspectRatio="xMidYMid meet">

<g transform="translate(0.000000,500.000000) scale(0.100000,-0.100000)"
fill="#007CBC" stroke="none">
<path d="M1323 3583 c4 -38 7 -557 7 -1156 l0 -1087 1153 2 1152 3 0 1150 0
1150 -1159 3 -1159 2 6 -67z m1238 -689 c85 -40 150 -106 180 -181 20 -50 24
-75 24 -193 0 -131 -1 -137 -31 -200 -37 -78 -97 -139 -173 -177 l-56 -28
-220 0 -220 0 -3 229 c-1 126 1 233 6 238 4 4 46 9 92 10 l85 3 3 -162 2 -163
78 0 c101 0 143 13 185 56 87 90 89 303 3 389 -43 43 -58 45 -441 45 l-366 0
3 -77 3 -78 105 -3 c58 -1 109 -7 114 -12 9 -9 9 -140 0 -149 -2 -2 -45 -3
-95 -2 -140 3 -130 16 -128 -167 l1 -157 -89 0 -88 0 -3 395 c-1 217 0 401 3
408 4 11 92 13 482 10 l478 -3 66 -31z m634 28 c10 -7 95 -219 95 -237 0 -4 9
-26 19 -49 40 -84 192 -507 186 -516 -7 -11 -153 -14 -179 -4 -9 3 -16 15 -16
26 0 18 -52 184 -68 218 -4 8 -30 84 -57 167 -28 84 -52 153 -55 153 -8 0 -80
-200 -80 -223 0 -3 21 -7 46 -9 29 -2 50 -9 55 -18 16 -31 39 -121 34 -130 -4
-6 -48 -10 -98 -10 l-92 0 -30 -88 -31 -87 -88 -3 c-49 -2 -93 1 -98 6 -6 6 0
37 16 82 25 70 138 365 155 405 5 11 23 61 41 110 17 50 38 105 46 123 8 18
14 39 14 47 0 32 30 45 103 45 40 0 77 -4 82 -8z"/>
</g>
</svg>
